<svg version="1.0" xmlns="http://www.w3.org/2000/svg" viewBox="80.646 102.492 178.708 45" color-interpolation-filters="sRGB" style="margin:auto"><g fill="#333" class="iconlettersvg-g iconlettersvg"><g class="tp-name"><g transform="translate(80.646 102.492)" class="name-imagesvg"><path class="image-rect" fill="none" d="M0 0h34.309v45H0z"/><svg width="34.309" height="45" class="image-svg-svg primary" style="overflow:visible"><svg xmlns="http://www.w3.org/2000/svg" viewBox="0 0 62.72 82.32"><path d="M15.68 57.62A8.08 8.08 0 0 0 18 63.44a7.35 7.35 0 0 0 5.54 2.41H39.2v16.47H23.52a21.9 21.9 0 0 1-9.18-1.94 24 24 0 0 1-7.45-5.29A25.12 25.12 0 0 1 0 57.62zm47-32.93v32.93H47V24.69z" fill="#fdda00"/><path d="M40.77 0 25.09 16.46h-1.57v-1.29L38 0h2.8zM37 0 23.52 14.11v-2.94L34.16 0zm-3.85 0-9.63 10.11V7.17L30.35 0zm-3.7 0-5.93 6.23V3.29L26.66 0zm-3.8 0-2.13 2.23V0zm16 .12a9 9 0 0 0 1.18.17 4 4 0 0 1 1.17.3L28.9 16.46h-2.8zm3.26.58a6.4 6.4 0 0 0 1.09.36 7 7 0 0 1 1 .35L32.7 16.46h-2.8zm2.8 1a10 10 0 0 1 1 .47c.3.15.63.31 1 .47l-13.2 13.82h-2.8zm2.58 1.29a4.5 4.5 0 0 1 1 .53 7 7 0 0 0 .84.53L40.21 16.58a3.2 3.2 0 0 0-1-.12h-1.8zm2.35 1.53c.52.39 1 .82 1.57 1.29L43 17.52a6.4 6.4 0 0 0-2-.82zm2.13 1.76a8 8 0 0 1 .78.71c.23.23.45.47.67.7L45.14 19.28l-.68-.7a7 7 0 0 0-.78-.7zm1.9 2q.67.82 1.23 1.65l-11.42 12a14 14 0 0 0-.9-2zm1.68 2.24c.23.31.43.6.62.88a7.5 7.5 0 0 1 .5.88L47.6 24.69H47a8 8 0 0 0 0-1.05c0-.32-.09-.67-.16-1.06zm1.46 2.35a9 9 0 0 0 .45 1 10 10 0 0 1 .44 1l-9.29 9.87h-2.8zM61 15.52c.15.4.28.77.39 1.12s.24.72.39 1.12l-6.68 6.93h-2.69zm.9 3.06a6.3 6.3 0 0 1 .33 1.24c.08.43.15.84.22 1.23l-3.58 3.64h-2.8zm.71 3.42a7.3 7.3 0 0 1 .11 1.29v1.41h-2.8z" fill="#5dd6c5"/><path d="M0 24.23v-1a6 6 0 0 1 .11-1l15.57 16.34v2.12zm0 1.88 15.68 16.46v2.12L0 28.22zm0 4 15.68 16.46v2.12L0 32.22zM0 34l15.68 16.45v2.12L0 36.1zm0 4 15.68 16.45v2.12L0 40.1zm0 4 14.9 15.62h-2L0 44.1zm0 4 11.09 11.62h-2L0 48.1zm0 4 7.28 7.64h-2L0 52.1zm0 4 3.47 3.64h-2L0 56.09zm.67-35.18 15 15.75v2.12L.34 20.58zM1 17.4a3 3 0 0 0 .28-.82 2.8 2.8 0 0 1 .28-.82l14.12 14.82v2.11zm1.8-4.35 12.88 13.53v2.11L2.13 14.47zm.67-1.17a5 5 0 0 1 .79-1.3L15.9 22.81a10.6 10.6 0 0 0-.22 1.88v.12zm1.46-2.36c.15-.15.31-.35.5-.58a7 7 0 0 1 .51-.59L17 20.11a2.2 2.2 0 0 0-.39.59 7 7 0 0 0-.28.7zm2.8-3.17 11.2 11.76a5 5 0 0 0-1.12.94L6.72 7.41zm1-.82a3 3 0 0 1 .56-.47 6 6 0 0 0 .56-.47L21.5 16.82a3.8 3.8 0 0 0-1.45.58zM11 3.88a4.9 4.9 0 0 1 1.23-.82L25 16.46h-2zm2.35-1.41a2.1 2.1 0 0 1 .73-.35 2.4 2.4 0 0 0 .72-.36l14 14.7h-2zM16 1.29a2.7 2.7 0 0 1 .86-.29 4 4 0 0 0 .72-.18l14.9 15.64h-2zm3-.82a8 8 0 0 1 .84-.18c.26 0 .58-.09.95-.17l15.5 16.34h-2zm20.16 16h-1.08L22.4 0h2l14.8 15.52zm0-2.82L26.21 0h2l11 11.52zm0-4L30 0h2l7.2 7.53zm0-4L33.82 0h2l3.38 3.53zm0-4L37.63 0h1.57zm.11 64.2 12.25 12.82-1.34.71-11-11.53v-2zm-.11 3.89 9.86 10.34a1.7 1.7 0 0 1-.68.3 3 3 0 0 0-.78.29l-8.4-8.82zm0 4 7.17 7.41a9.3 9.3 0 0 1-1.68.47l-5.45-5.77zm0 3.88 4 4.36a3.2 3.2 0 0 1-.84.11 3.3 3.3 0 0 0-.84.12l-2.28-2.48zm0 4 .67.71h-.63zm1.68-16c.6-.15 1.12-.31 1.57-.47L53.76 77c-.23.16-.43.31-.62.47s-.39.31-.61.47zm2.69-1.18a7 7 0 0 0 1.12-.94l11.13 11.65a12 12 0 0 1-1.12 1zm1.9-1.88a9 9 0 0 0 .79-1.41L57.57 73c-.15.23-.3.45-.45.65a6 6 0 0 1-.45.52zm1.23-2.7A4.9 4.9 0 0 0 47 58l12.1 12.7a6 6 0 0 0-.4.7 2.2 2.2 0 0 1-.39.59zM47 42.1l15.72 16.46a7 7 0 0 1-.06 1c0 .28-.09.61-.17 1L47 44.22zm0 4 15.23 16-.33 1.77L47 48.22zm0 4 14.6 15.17a7 7 0 0 0-.34.82c-.07.24-.15.51-.22.82L47 52.21zm0 4 13.48 14.11a13 13 0 0 1-.67 1.29L47 56.21zm3-12.94 12.72 13.41v2.11L47.94 41.16zm3.7 0 9.07 9.52v2.12L51.63 41.16zm3.8 0 5.27 5.53v2.11l-7.28-7.64zm5.27 1.53v2.12l-3.47-3.65h2z" fill="#ec0186"/></svg></svg></g><g transform="translate(114.956 102.492)" class="name-imagesvg"><path class="image-rect" fill="none" d="M0 0h42.868v45H0z"/><svg width="42.868" height="45" class="image-svg-svg primary" style="overflow:visible"><svg xmlns="http://www.w3.org/2000/svg" viewBox="0 0 78.4 82.32"><path d="M78.4 0v16.46H63.28L39.2 56.57 5.15 0h18.59L39.2 25.75 54.66 0z" fill="#fdda00"/><path d="M15.23 0H18L2.35 16.46H0V16zm-3.81 0h2.8L0 14.93V12zm-3.8 0h2.8L0 10.94V8zM3.81 0h2.8L0 6.94V4zM.11 0H2.8L0 3.06V.12zM19 0h2.8L6.16 16.46h-2.8zM7.17 16.46 22.85 0h.67v2.23L7.84 18.7v-2.24zm.67 6.12v-2.94L23.52 3.17v2.94zm0 4v-2.94L23.52 7.17v2.94zm0 4v-2.94l15.68-16.47v2.94zm0 4v-2.95l15.68-16.46v2.94zm0 4v-2.95l15.68-16.46v2.94zm0 4v-2.95l15.68-16.46v2.94zm0 3.88v-2.95l15.68-16.46V30zm0 4v-2.95l15.68-16.46V34zm0 4v-2.95l15.68-16.46V38zm0 4v-2.95L23.52 39v3zm0 4v-2.95L23.52 43v3zm0 3.41V63.5L23.52 47v3L8.4 65.85zm4.26 0H9.3l14.22-14.95v2.94zm3.8 0h-2.8l10.42-10.95v2.94zm3.81 0h-2.8l6.61-6.93v2.94zm1 0 2.8-2.93v2.93zm41.22 0h2.8L49.06 82.32H47v-.82zm-3.81 0h2.8L47 80.44V77.5zm-3.7 0h2.8L47 76.56v-2.94zm-3.81 0h2.8L47 72.56v-2.94zm-3.58 0h2.58L47 68.56zm18.7 0h2.81L52.86 82.32h-2.8zm3.81 0h2.8L56.67 82.32h-2.8zm3.81 0h2.8L60.48 82.32h-2.8zm3.81 0h1.24v1.63L64.29 82.32h-2.8zM68 82.32h-2.8l13.2-13.88v2.94zm3.81 0H69l9.41-9.88v2.94zm3.81 0H72.8l5.6-5.88v2.94zm2.8 0h-1.81l1.79-1.88z" fill="#5dd6c5"/><path d="M0 65.85h1.23l15.68 16.47h-2L0 66.68zm0 4.83v-2.12l13.1 13.76h-2zm0 3.88v-2.12l9.41 9.88h-2zm0 4v-2.12l5.6 5.88h-2zm0 3.76v-1.88l1.79 1.88zm3-16.47h2l15.72 16.47h-2zm3.81 0h2l15.72 16.47h-2zm3.81 0h2l15.72 16.47h-2zm3.81 0h2L31.36 81.5v.82h-1.23zm3.81 0h1.9l11.2 11.76v2zm3.69 0h2l7.39 7.77v2.11zm3.81 0h2l3.58 3.77v2.12zm5.6 1.89-1.79-1.89h1.79zM54.88 0h1l14.68 15.41v2.11L54.88 1.06zm0 5.06V2.94L70.56 19.4v2.12zm0 4V6.94L70.56 23.4v2.12zm0 4v-2.12L70.56 27.4v2.12zm0 3.88v-2.12l15.68 16.46v2.12zm0 4v-2.12l15.68 16.46v2.12zm0 4v-2.13l15.68 16.47v2.12zm0 4v-2.13l15.68 16.47v2.11zm0 4v-2.13l15.68 16.46v2.12zm0 4v-2.13l15.68 16.46v2.12zm0 3.88v-2.13l15.68 16.46v2.12zm0 4v-2.13l15.68 16.46v2.12zm0 4v-2.13l15.68 16.46v2.12zm0 4v-2.14l15.68 16.47v2.12zm0 4v-2.14l15.68 16.47v2.11zm0 4v-2.14l15.68 16.47v2.11zm0 3.88v-2.14L70.56 79v2.11zm0 4v-2.14l15 15.76h-2zm0 4v-2.14l11.2 11.76h-2zm0 4v-2.14l7.39 7.76h-2zm0 4v-2.14l3.59 3.76h-2zM57.68 0h2l10.88 11.41v2.11zm3.81 0h2l7.05 7.41v2.11zm3.69 0h2l3.36 3.53v2.11zM69 0h1.57v1.65z" fill="#ec0186"/></svg></svg></g><g transform="translate(157.823 102.492)" class="name-imagesvg"><path class="image-rect" fill="none" d="M0 0h42.426v45H0z"/><svg width="42.426" height="45" class="image-svg-svg primary" style="overflow:visible"><svg xmlns="http://www.w3.org/2000/svg" viewBox="0 0 77.62 82.32"><path d="M69.78 77.61v4.71H54.1L14.78 16.46H0V0h23.52zM0 65.85h31.36v16.47H0z" fill="#fdda00"/><path d="M11.2 16.46H14l-6.16 6.47V20zm-3.36 0h2.35l-2.35 2.47zm7.06.12 1 1.77-8.06 8.58V24zm1.45 2.47 1 1.76-9.51 10.12V28zm1.46 2.47 1 1.76-11 11.53v-2.94zm1.45 2.35 1 1.88L7.84 38.81v-2.94zm1.46 2.47 1 1.88L7.84 42.81v-3zm1.46 2.47 1.12 1.77L7.84 46.8v-2.94zM7.84 50.8v-2.94L23.52 31.4v2.94zm0 4v-2.94L23.52 35.4v2.94zm0 3.88v-2.94l15.68-16.46v2.94zm0 4v-2.94l15.68-16.46v2.94zm0 4v-2.94l15.68-16.47v2.95zm0 4v-2.94l15.68-16.47v2.94zm0 4v-2.94l15.68-16.47v2.94zm0 4v-2.95l15.68-16.46v2.94zm0 3.65v-2.72l15.68-16.46v2.94L8.06 82.32zm4 0H9.07l14.45-15.18v2.94zm3.81 0h-2.8l10.67-11.18v2.94zm3.81 0h-2.8l6.83-7.17v2.94zm4 0h-3l3-3.18zM68.55 0h1.23v1.65L54.1 18.11v-2.94zm-3.81 0h2.8L54.1 14.11v-2.94zm-3.81 0h2.8L54.1 10.11V7.17zm-3.7 0H60l-5.9 6.23V3.29zM54.1 0h2.12L54.1 2.23zm0 22.11v-2.94L69.78 2.7v2.94zm0 4v-2.94L69.78 6.7v2.94zm0 4v-2.95L69.78 10.7v2.94zm0 3.89v-2.95l15.68-16.47v2.94zm0 4v-2.95l15.68-16.47v2.94zm0 4v-3l15.68-16.42v2.94zm0 4v-3l15.68-16.42v2.94zm0 4v-3l15.68-16.42v2.94zm0 1.29V51l15.68-16.43v2.94L55.1 52.92zm2.46 4.12-1.12-1.88 14.34-15.08v2.95zM58 57.86 56.9 56l12.88-13.55v2.94zm1.45 2.35-1.12-1.76 11.43-12v2.94zm1.46 2.47-1.12-1.76 10-10.47v2.94zm1.45 2.47-1.12-1.76 8.52-8.94v2.94zm1.46 2.47-1.12-1.88 7.06-7.29v2.94zm1.46 2.47-1.12-1.88 5.6-5.88v2.94zm1.45 2.35-1.12-1.76 4.15-4.35v2.94zm1.46 2.47-1.12-1.76 2.69-2.83v2.94zm1.45 2.47-1.11-1.76 1.23-1.3v2.94z" fill="#5dd6c5"/><path d="M46.26 0h1.23l22.29 23.4v2.12L46.26.82zm0 4.82V2.7l23.52 24.7v2.12zm0 4V6.7l23.52 24.7v1.53h-.56L54.1 17.05v-.59h-.56zm0 4V10.7l5.48 5.76h-2zm0 3.64V14.7l1.68 1.76zM49.17 0h2l18.6 19.52v2.12zM53 0h2l15.67 16.46h-.89v1.18zm1.1 21.05v-2.12l13.32 14h-2zm0 4v-2.12l9.52 10h-2zm0 4v-2.12l5.71 6h-2zm0 3.88v-2.12l2 2.12zM56.78 0h2l15.7 16.46h-2zm3.81 0h2l15 15.76v.7h-1.32zm3.81 0h2l11.2 11.76v2.12zm3.81 0h2l7.4 7.76v2.12zm3.69 0h2l3.7 3.88V6zm3.81 0h1.91v2z" fill="#ec0186"/></svg></svg></g><g transform="translate(200.249 102.492)" class="name-imagesvg"><path class="image-rect" fill="none" d="M0 0h17.137v45H0z"/><svg width="17.137" height="45" class="image-svg-svg primary" style="overflow:visible"><svg xmlns="http://www.w3.org/2000/svg" viewBox="0 0 31.36 82.32"><path d="M23.52 0v32.93H7.84V0z" fill="#fdda00"/><path d="M14.78 0h2.8L1.9 16.46H0v-.94zM11 0h2.8L0 14.47v-3zM7.17 0H10L0 10.47V7.53zM3.36 0h2.8L0 6.47V3.53zM0 0h2.35L0 2.47zm18.48 0h2.8L5.6 16.46H2.8zm6.61 0L9.41 16.46h-2.8L22.29 0zM7.84 47l13.44-14.07h2.24v.59L7.84 50zm0-1.06V43l9.63-10.11h2.8zm0-6.94 5.82-6.11h2.81L7.84 42zm0-1.06v-2.89l2-2.12h2.8zm0-3.88v-1.13H9zm0 19.94v-3l15.68-16.43v2.94zm0 4v-3l15.68-16.43v2.94zm0 3.88v-2.96l15.68-16.47v2.94zm0 4v-2.96l15.68-16.47v2.94zm0 4v-2.97l15.68-16.46v2.94zm0 4v-2.97l15.68-16.46v2.94zm0 4v-2.97l15.68-16.46v2.94zm0 4v-2.97l15.68-16.47v3zm3.25.47H8.4l15.12-15.91v2.83zM28.9 0h-2.8L10.42 16.46h2.8zm-14 82.32h-2.8l11.42-12v2.94zM29.9 0h1.46v1.41L17 16.46h-2.8zM18.7 82.32h-2.8l7.62-8v2.94zm2.13-65.86H18l13.33-14v2.95zm1.68 65.86h-2.8l3.81-4v2.94zm2.13-65.86h-2.8l9.52-10v2.95zm3.7 0h-2.8l5.82-6.11v2.94zm3 0h-2l2-2.11z" fill="#5dd6c5"/><path d="M0 65.85h.9l15.68 16.47h-2L0 67zM0 71v-2.09l12.77 13.41h-2zm0 4v-2.09l9 9.41H7zm0 4v-2.09l5.15 5.41h-2zm0 3.29v-1.5l1.46 1.53zm2.69-16.44h2l15.69 16.47h-2zm3.81 0h2l15.69 16.47h-2zm3.69 0h2l15.7 16.47h-2zm3.81 0h2L31.36 82v.35h-1.68zm3.81 0h2L31.36 78v2.11zm3.81 0h2L31.36 74v2.12zm3.8 0h2L31.36 70v2.12zm5.83 0 .11.12v2.12l-2.13-2.24z" fill="#ec0186"/></svg></svg></g><g transform="translate(217.386 102.492)" class="name-imagesvg"><path class="image-rect" fill="none" d="M0 0h41.968v45H0z"/><svg width="41.968" height="45" class="image-svg-svg primary" style="overflow:visible"><svg xmlns="http://www.w3.org/2000/svg" viewBox="0 0 76.83 82.32"><path d="M69.22 65.85H52.86L38.75 16.46h-.67L24 65.85H7.62L26.43 0h24z" fill="#fdda00"/><path d="M14.78 65.85h2.81L1.9 82.32H0v-.94zm-3.8 0h2.8L0 80.32v-2.94zm-3.81 0H10L0 76.32v-2.94zm-3.81 0h2.8L0 72.32v-2.94zm-3.36 0h2.47L0 68.44zm18.59 0h2.8L5.71 82.32h-2.8zm3.81 0h2.8L9.52 82.32h-2.8zm4.82-24.69L11.54 57.62H10l.45-1.88 14-14.58zm-1 24.69h2.68L13.22 82.32h-2.69zm-5.6-24.69h2.8L10.86 54.33l1.24-4.23zm-5.39 16.46h-2.8l15.68-16.46h2.8zm1.57-16.46h2.8l-7 7.41 1.11-4.12zm-2.13 0h1.12l-1.68 1.76zm-.45 41.16L29.9 65.85h1.46v1.42L17 82.32zM19 57.62h-2.8l15.72-16.46h2.8zm1.79 24.7H18l13.33-14v2.94zm2-24.7h-2.8l15.74-16.46h2.8zm1.79 24.7h-2.8l9.52-10v2.94zm2-24.7h-2.8l15.76-16.46h2.8zm1.79 24.7h-2.8l5.71-6v2.94zm2-24.7h-2.71l15.68-16.46h2.8zm.89 24.7h-1.9l1.9-2zm15.89-41.16H50L34.27 57.62h-2.8zm3.7 0h2.8L38 57.62h-2.8zm3.81 0h2.8L41.78 57.62H39zm6.6 0L45.59 57.62h-2.81l15.69-16.46zm-1 24.69h2.8L47.38 82.32h-1.91v-.94zM45.47 80.32v-2.94l11-11.53h2.8zm0-4v-2.94l7.17-7.53h2.8zm0-3.88V69.5l3.47-3.65h2.8zm0-4v-2.59h2.47zm3.92-10.82h-2.8l15.68-16.46.56 2.35zm14.67 8.23h2.8L51.18 82.32h-2.8zM53.2 57.62h-2.8l12.66-13.4.67 2.35zm14.67 8.23h2.8L55 82.32h-2.8zM57 57.62h-2.8L64 47.39l.67 2.24zm14.67 8.23h2.8L58.8 82.32H56zm-11-8.23H57.9l6.95-7.17.67 2.23zm14.68 8.23h1.45v1.42l-14.33 15H59.7zm-10.84-8.23h-2.8l4-4.11.68 2.23zm1.79 24.7h-2.79l13.32-14v2.94zm.56-24.7h-1.34l1.12-1zm3.25 24.7h-2.8l9.52-10v2.94zm3.81 0h-2.8l5.71-6v2.94zm2.91 0h-1.9l1.9-2z" fill="#5dd6c5"/><path d="M0 65.85h1l15.69 16.47h-2L0 66.91zm0 5v-2.17l13 13.64h-2zm0 4v-2.17l9.18 9.64h-2zm0 4v-2.18l5.38 5.65h-2zm0 3.53v-1.71l1.57 1.65zm2.8-16.53h2l15.7 16.47h-2zm3.81 0h2L24.3 82.32h-2zm3.81 0h2l15.69 16.47h-2zm3.8 0h2l15.14 15.88v.59H29.9zm3.81 0h2l11.33 11.88v2.12zm3.7 0h2l7.62 8V76zm3.81 0h2l3.81 4V72zm3.8 0h2V68z" fill="#ec0186"/></svg></svg></g></g></g></svg>
